<?xml version="1.0" encoding="UTF-8" standalone="no"?>
<svg
   version="1.1"
   viewBox="-5 -10 100 100"
   id="svg2"
   sodipodi:docname="noun-browser-6991186-t.svg"
   width="100"
   height="100"
   inkscape:version="1.3.2 (091e20e, 2023-11-25)"
   xmlns:inkscape="http://www.inkscape.org/namespaces/inkscape"
   xmlns:sodipodi="http://sodipodi.sourceforge.net/DTD/sodipodi-0.dtd"
   xmlns="http://www.w3.org/2000/svg"
   xmlns:svg="http://www.w3.org/2000/svg">
  <defs
     id="defs2" />
  <sodipodi:namedview
     id="namedview2"
     pagecolor="#ffffff"
     bordercolor="#000000"
     borderopacity="0.25"
     inkscape:showpageshadow="2"
     inkscape:pageopacity="0.0"
     inkscape:pagecheckerboard="0"
     inkscape:deskcolor="#d1d1d1"
     inkscape:zoom="1.7481481"
     inkscape:cx="55.201271"
     inkscape:cy="67.5"
     inkscape:window-width="1280"
     inkscape:window-height="689"
     inkscape:window-x="0"
     inkscape:window-y="33"
     inkscape:window-maximized="0"
     inkscape:current-layer="svg2" />
  <g
     id="g2"
     transform="translate(-4.5762712,-9.1525424)">
    <path
       d="M 50,10 C 28.199,10 10.5,27.699 10.5,49.5 10.5,71.301 28.199,89 50,89 c 4.3984,0 8.6016,-0.69922 12.602,-2.1016 v -2.1992 c -1.6016,0.60156 -3.1992,1 -4.8008,1.3984 1.6992,-1.3984 3.3984,-3.1992 4.8008,-5.3984 V 76.5 c -3,6 -7.1016,9.8008 -11.5,10.301 v -17 h 11.5 V 67.6994 H 51 v -17.098 h 17.102 c -0.10156,4.6992 -0.5,9.1992 -1.3984,13.301 l 1.8984,1.1016 c 0.89844,-4.3984 1.5,-9.3008 1.5,-14.398 h 17.102 c -0.19922,6.1992 -1.8984,12.102 -4.6992,17.199 h -9.1016 l 3.6016,2.1016 h 4.3008 c -0.39844,0.60156 -0.80078,1.1992 -1.1992,1.8008 l 1.8008,1 c 4.6992,-6.5 7.5,-14.5 7.5,-23.102 0.09375,-21.906 -17.605,-39.605 -39.406,-39.605 z m -7.8008,2.8984 c -4.1016,3.1992 -7.5,9 -9.6992,16.301 h -14 c 5.3984,-8.1992 13.801,-14.199 23.699,-16.301 z m -24.898,18.402 h 14.602 c -1.3008,5.1016 -2.1016,11 -2.1992,17.199 H 12.602 c 0.09766,-6.1992 1.7969,-12.102 4.6992,-17.199 z m -4.6992,19.301 h 17.102 c 0.10156,6.1992 0.89844,12 2.1992,17.199 h -14.602 c -2.9023,-5.1992 -4.6016,-11 -4.6992,-17.199 z m 5.8984,19.199 h 14 c 2.1992,7.3984 5.6016,13.102 9.6992,16.301 -9.8984,-2 -18.301,-8 -23.699,-16.301 z m 30.5,17.098 c -6,-0.69922 -11.199,-7.3008 -14.199,-17.102 l 14.199,0.0039 z m 0,-19.199 h -14.898 c -1.3984,-5.1016 -2.1992,-11 -2.3008,-17.199 h 17.199 z m 0,-19.199 h -17.199 c 0.10156,-6.1992 0.89844,-12.102 2.3008,-17.199 h 14.898 z m 0,-19.301 h -14.301 c 3.1016,-9.6992 8.3008,-16.398 14.301,-17.098 z m 32.5,0 h -14 C 65.3012,21.801 61.8988,16.0974 57.8012,12.8984 67.6996,15 76.1022,21 81.5002,29.1994 Z m -30.5,-17.098 c 6,0.69922 11.199,7.3008 14.199,17.102 l -14.199,-0.0039 z m 0,36.398 v -17.199 h 14.898 c 1.3984,5.1016 2.1992,11 2.3008,17.199 z m 19.301,0 c -0.10156,-6.1992 -0.89844,-12 -2.1992,-17.199 h 14.602 c 2.8008,5.1016 4.5,11 4.6992,17.199 z"
       id="path1" />
    <path
       d="m 83.5,77.102 c 0,-0.39844 -0.19922,-0.80078 -0.5,-1 L 66.699,66.7036 c -0.30078,-0.19922 -0.69922,-0.19922 -1,0 -0.30078,0.19922 -0.5,0.5 -0.5,0.89844 v 18.801 c 0,0.39844 0.19922,0.80078 0.60156,0.89844 0.39844,0.19922 0.80078,0.10156 1.1016,-0.19922 l 3.6992,-3.1992 3.1992,5.5 c 0.19922,0.30078 0.5,0.5 0.89844,0.5 0.19922,0 0.39844,0 0.5,-0.10156 l 5.8984,-3.3984 c 0.19922,-0.10156 0.39844,-0.39844 0.5,-0.60156 0.10156,-0.30078 0,-0.60156 -0.10156,-0.80078 l -3.1992,-5.5 4.6016,-1.6016 c 0.30078,-0.09766 0.5,-0.39844 0.60156,-0.79688 z m -7.1992,0.79688 c -0.30078,0.10156 -0.5,0.30078 -0.60156,0.60156 -0.10156,0.30078 -0.10156,0.60156 0.10156,0.89844 l 3.3008,5.6992 -4.1016,2.3984 -3.3008,-5.6992 c -0.19922,-0.30078 -0.39844,-0.5 -0.69922,-0.5 h -0.19922 c -0.30078,0 -0.5,0.10156 -0.69922,0.30078 l -2.8984,2.5 -0.0039,-14.699 12.699,7.3984 z"
       id="path2" />
  </g>
</svg>
