<svg xmlns="http://www.w3.org/2000/svg" version="1.1" viewBox="-5.0 -10.0 110.0 135.0">
 <g>
  <path d="m50 10c-21.801 0-39.5 17.699-39.5 39.5s17.699 39.5 39.5 39.5c4.3984 0 8.6016-0.69922 12.602-2.1016v-2.1992c-1.6016 0.60156-3.1992 1-4.8008 1.3984 1.6992-1.3984 3.3984-3.1992 4.8008-5.3984v-4.1992c-3 6-7.1016 9.8008-11.5 10.301v-17h11.5v-2.1016h-11.602v-17.098h17.102c-0.10156 4.6992-0.5 9.1992-1.3984 13.301l1.8984 1.1016c0.89844-4.3984 1.5-9.3008 1.5-14.398h17.102c-0.19922 6.1992-1.8984 12.102-4.6992 17.199h-9.1016l3.6016 2.1016h4.3008c-0.39844 0.60156-0.80078 1.1992-1.1992 1.8008l1.8008 1c4.6992-6.5 7.5-14.5 7.5-23.102 0.09375-21.906-17.605-39.605-39.406-39.605zm-7.8008 2.8984c-4.1016 3.1992-7.5 9-9.6992 16.301h-14c5.3984-8.1992 13.801-14.199 23.699-16.301zm-24.898 18.402h14.602c-1.3008 5.1016-2.1016 11-2.1992 17.199h-17.102c0.097657-6.1992 1.7969-12.102 4.6992-17.199zm-4.6992 19.301h17.102c0.10156 6.1992 0.89844 12 2.1992 17.199h-14.602c-2.9023-5.1992-4.6016-11-4.6992-17.199zm5.8984 19.199h14c2.1992 7.3984 5.6016 13.102 9.6992 16.301-9.8984-2-18.301-8-23.699-16.301zm30.5 17.098c-6-0.69922-11.199-7.3008-14.199-17.102l14.199 0.003906zm0-19.199h-14.898c-1.3984-5.1016-2.1992-11-2.3008-17.199h17.199zm0-19.199h-17.199c0.10156-6.1992 0.89844-12.102 2.3008-17.199h14.898zm0-19.301h-14.301c3.1016-9.6992 8.3008-16.398 14.301-17.098zm32.5 0h-14c-2.1992-7.3984-5.6016-13.102-9.6992-16.301 9.8984 2.1016 18.301 8.1016 23.699 16.301zm-30.5-17.098c6 0.69922 11.199 7.3008 14.199 17.102l-14.199-0.003906zm0 36.398v-17.199h14.898c1.3984 5.1016 2.1992 11 2.3008 17.199zm19.301 0c-0.10156-6.1992-0.89844-12-2.1992-17.199h14.602c2.8008 5.1016 4.5 11 4.6992 17.199z"/>
  <path d="m83.5 77.102c0-0.39844-0.19922-0.80078-0.5-1l-16.301-9.3984c-0.30078-0.19922-0.69922-0.19922-1 0s-0.5 0.5-0.5 0.89844v18.801c0 0.39844 0.19922 0.80078 0.60156 0.89844 0.39844 0.19922 0.80078 0.10156 1.1016-0.19922l3.6992-3.1992 3.1992 5.5c0.19922 0.30078 0.5 0.5 0.89844 0.5 0.19922 0 0.39844 0 0.5-0.10156l5.8984-3.3984c0.19922-0.10156 0.39844-0.39844 0.5-0.60156 0.10156-0.30078 0-0.60156-0.10156-0.80078l-3.1992-5.5 4.6016-1.6016c0.30078-0.097657 0.5-0.39844 0.60156-0.79688zm-7.1992 0.79688c-0.30078 0.10156-0.5 0.30078-0.60156 0.60156-0.10156 0.30078-0.10156 0.60156 0.10156 0.89844l3.3008 5.6992-4.1016 2.3984-3.3008-5.6992c-0.19922-0.30078-0.39844-0.5-0.69922-0.5h-0.19922c-0.30078 0-0.5 0.10156-0.69922 0.30078l-2.8984 2.5-0.003906-14.699 12.699 7.3984z"/>
 </g>
</svg>